<?xml version="1.0" standalone="no"?>
<!DOCTYPE svg PUBLIC "-//W3C//DTD SVG 20010904//EN"
 "http://www.w3.org/TR/2001/REC-SVG-20010904/DTD/svg10.dtd">
<svg version="1.0" xmlns="http://www.w3.org/2000/svg"
 width="200.000000pt" height="200.000000pt" viewBox="0 0 200.000000 200.000000"
 preserveAspectRatio="xMidYMid meet">
<metadata>
Created by potrace 1.14, written by Peter Selinger 2001-2017
</metadata>
<g transform="translate(0.000000,200.000000) scale(0.100000,-0.100000)"
fill="#000000" stroke="none">
<path d="M497 1502 c-375 -375 -477 -482 -477 -502 0 -37 944 -980 980 -980
37 0 980 944 980 980 0 37 -943 980 -980 980 -20 0 -126 -101 -503 -478z m643
223 c68 -68 122 -126 120 -129 -3 -2 -117 -99 -255 -215 l-250 -211 -3 212 -2
212 127 128 c70 70 130 128 133 128 3 0 61 -56 130 -125z m437 -437 c117 -117
213 -216 213 -220 0 -5 -121 -8 -270 -8 l-270 0 0 -65 0 -65 272 0 273 0 -210
-210 c-115 -116 -213 -210 -217 -210 -5 0 -139 115 -298 255 l-290 254 122
104 c68 58 195 166 283 240 88 75 164 136 170 137 5 0 105 -96 222 -212z
m-957 -290 l0 -463 -232 232 -233 233 230 230 c126 126 231 230 232 230 2 0 3
-208 3 -462z m468 -422 c100 -88 182 -162 182 -165 0 -4 -58 -65 -130 -136
l-130 -130 -130 130 -130 130 0 233 0 234 78 -69 c42 -37 159 -140 260 -227z"/>
</g>
</svg>
